HIERARCHY
ROOT hip
{
	OFFSET 0.000000 0.000000 0.000000 
	CHANNELS 6 Xposition Yposition Zposition Xrotation Zrotation Yrotation
	JOINT abdomen
	{
		OFFSET 0.000000 3.402643 0.000000 
		CHANNELS 3 Xrotation Zrotation Yrotation
		JOINT chest
		{
			OFFSET 0.000000 8.438565 -0.680529 
			CHANNELS 3 Xrotation Zrotation Yrotation
			JOINT neck
			{
				OFFSET 0.000000 10.207942 -0.272212 
				CHANNELS 3 Xrotation Zrotation Yrotation
				JOINT head
				{
					OFFSET 0.000000 3.130431 0.000000 
					CHANNELS 3 Xrotation Zrotation Yrotation
					End Site
					{
						OFFSET 0.000000 3.130435 0.000000 
					}
				}
			}
			JOINT lCollar
			{
				OFFSET 3.470700 6.669187 -0.816635 
				CHANNELS 3 Yrotation Zrotation Xrotation
				JOINT lShldr
				{
					OFFSET 3.198488 0.000000 0.000000 
					CHANNELS 3 Zrotation Yrotation Xrotation
					JOINT lForeArm
					{
						OFFSET 10.139888 0.000000 0.000000 
						CHANNELS 3 Yrotation Zrotation Xrotation
						JOINT lHand
						{
							OFFSET 8.370511 0.000000 0.000000 
							CHANNELS 3 Zrotation Yrotation Xrotation
							End Site
							{
								OFFSET 4.083176 0.000000 0.000000 
							}
						}
					}
				}
			}
			JOINT rCollar
			{
				OFFSET -3.470700 6.669187 -0.816635 
				CHANNELS 3 Yrotation Zrotation Xrotation
				JOINT rShldr
				{
					OFFSET -3.198488 0.000000 0.000000 
					CHANNELS 3 Zrotation Yrotation Xrotation
					JOINT rForeArm
					{
						OFFSET -10.139888 0.000000 0.000000 
						CHANNELS 3 Yrotation Zrotation Xrotation
						JOINT rHand
						{
							OFFSET -8.370511 0.000000 0.000000 
							CHANNELS 3 Zrotation Yrotation Xrotation
							End Site
							{
								OFFSET -4.083176 0.000000 0.000000 
							}
						}
					}
				}
			}
		}
	}
	JOINT lThigh
	{
		OFFSET 5.308129 -1.633274 1.361059 
		CHANNELS 3 Xrotation Zrotation Yrotation
		JOINT lShin
		{
			OFFSET -2.041588 -20.007561 0.000000 
			CHANNELS 3 Xrotation Zrotation Yrotation
			JOINT lFoot
			{
				OFFSET 0.000000 -19.190928 -1.224953 
				CHANNELS 3 Xrotation Yrotation Zrotation
				End Site
				{
					OFFSET 0.000000 -2.449906 4.627600 
				}
			}
		}
	}
	JOINT rThigh
	{
		OFFSET -5.308129 -1.633274 1.361059 
		CHANNELS 3 Xrotation Zrotation Yrotation
		JOINT rShin
		{
			OFFSET 2.041588 -20.007561 0.000000 
			CHANNELS 3 Xrotation Zrotation Yrotation
			JOINT rFoot
			{
				OFFSET 0.000000 -19.190928 -1.224953 
				CHANNELS 3 Xrotation Yrotation Zrotation
				End Site
				{
					OFFSET 0.000000 -2.449906 4.627600 
				}
			}
		}
	}
}
MOTION
Frames: 8
Frame Time: 0.016667
4.476734 45.529839 -4.830062 3.222480 -10.920600 8.568540 -18.130100 -1.466950 -0.105042 15.991800 -2.472610 -0.154395 3.765100 1.085460 -9.136630 6.055540 5.343910 -4.515530 2.000000 -2.000000 0.000000 -64.573700 5.278530 137.384003 29.492500 -0.333849 0.067366 0.044639 0.001449 -136.404007 -2.000000 2.000000 0.000000 84.314796 1.798780 170.981003 -30.254200 0.332944 0.068886 -0.071922 -0.072919 -109.890999 -27.666937 -0.380676 16.278585 37.824886 2.053195 2.939029 -3.143601 9.736112 -1.291333 -9.975204 16.342695 -18.619583 38.021118 -1.917348 -3.006994 12.516486 16.375704 -2.268682 
4.658925 44.920010 -5.826356 4.046980 -10.082700 8.068640 -18.311199 -1.415800 -0.857441 15.738000 -2.393860 -0.501557 0.239996 0.665991 -11.826100 4.821180 5.778930 -5.855610 2.000000 -2.000000 0.000000 -70.991096 5.516760 144.725998 31.562799 -0.331340 0.071621 0.046202 -0.022379 -144.938995 -2.000000 2.000000 0.000000 -94.942200 176.115997 -7.266140 -30.361700 0.332814 0.069107 -0.071062 -0.071208 -110.573997 -28.887671 -1.507262 16.029324 37.425926 2.014647 2.935841 -5.525170 7.114471 -1.208776 -7.641953 17.235863 -14.677299 32.830090 -2.110381 -2.668301 -5.737854 14.946061 2.860456 
4.764129 44.161270 -6.994639 4.001610 -8.738740 8.072360 -17.970900 -1.466540 -1.688450 15.308900 -2.110270 -0.909871 -2.922510 0.367262 -14.390000 3.899350 6.230590 -7.091570 2.000000 -2.000000 0.000000 -76.927696 4.310750 151.964005 33.994499 -0.328199 0.076499 0.047738 -0.031409 -148.210999 -2.000000 2.000000 0.000000 -94.745598 172.936996 -5.089420 -29.551100 0.333780 0.067431 -0.073045 -0.075078 -109.021004 -30.369579 -2.427774 15.012131 39.146767 1.924982 3.040327 -5.233335 2.090844 -1.806483 -6.894709 16.793787 -11.280674 30.565937 -2.194100 -2.504854 -12.069110 11.112453 3.594274 
4.890577 43.849407 -8.273543 4.187500 -6.545130 8.486460 -17.922100 -1.854320 -2.445570 13.825600 -1.551740 -1.340390 -4.923140 2.450430 -16.941900 3.744280 7.646850 -8.238410 2.000000 -2.000000 0.000000 -81.720596 2.912750 160.227997 36.865601 -0.324228 0.082080 0.046323 -0.023218 -145.242004 -2.000000 2.000000 0.000000 -95.154503 170.384003 -2.963810 -28.633101 0.334845 0.065517 -0.078359 -0.074589 -105.203003 -32.604900 -3.499059 16.466532 42.224277 1.758413 3.253718 -1.323731 -2.880121 -2.179471 -7.409985 15.199820 -9.679671 29.817068 -2.225592 -2.450483 -16.191980 4.930624 2.255881 
5.000040 43.798618 -9.430413 5.458650 -9.041530 9.120050 -18.142599 -1.167730 -3.088150 13.020000 -2.526840 -1.472770 -7.903580 1.390840 -19.016399 2.542170 7.656630 -9.277410 2.000000 -2.000000 0.000000 -84.246399 2.419270 170.677994 42.217201 -0.316102 0.091923 0.045575 -0.017359 -143.132996 -2.000000 2.000000 0.000000 -96.218102 168.914993 -0.489411 -29.053101 0.334362 0.066395 -0.079964 -0.086899 -104.128998 -37.113091 -0.247903 13.445910 45.953476 1.604274 3.440810 5.552783 -10.796304 -0.931999 -9.592437 17.636129 -9.754614 27.452457 -2.008355 -2.419878 -15.329919 2.303201 1.269092 
5.022260 44.269550 -10.320345 6.233460 -8.660220 9.877060 -17.645300 -1.127880 -3.510410 13.060700 -2.236600 -1.698190 -9.416870 4.219090 -20.883801 2.778010 8.320800 -10.002700 2.000000 -2.000000 0.000000 95.410202 178.757004 1.266780 48.516102 -0.305412 0.102476 0.044841 -0.008174 -139.841995 -2.000000 2.000000 0.000000 -98.043503 167.354996 0.774260 -30.039400 0.333201 0.068442 -0.079668 -0.086438 -104.323997 -39.315796 0.371268 9.206728 48.261265 1.475194 3.580573 24.872229 -19.636774 7.178687 -10.769530 16.679028 -10.382220 25.985950 -1.942841 -2.359939 -14.920341 3.315889 1.516529 
4.975819 44.786781 -11.025054 7.353520 -7.797470 10.021000 -17.608700 -1.397510 -3.813500 12.975400 -1.645650 -1.919760 -9.217080 6.226410 -22.100500 3.152900 8.975250 -10.505800 2.000000 -2.000000 0.000000 -82.136703 1.390790 -170.061996 55.127399 -0.293018 0.112220 0.045049 0.001791 -132.791000 -2.000000 2.000000 0.000000 -99.840401 167.509995 0.129340 -30.820601 0.332257 0.070050 -0.083520 -0.092185 -101.853996 -40.091976 0.149643 4.003997 50.743458 1.345995 3.697946 29.784620 -20.437637 9.955529 -12.525018 15.170094 -9.455187 25.597626 -1.897378 -2.359446 -12.967620 4.992460 1.863126 
5.013869 45.198952 -11.630108 8.333110 -6.948080 9.355160 -17.720100 -1.680320 -4.040830 12.693500 -1.228580 -2.096000 -8.716320 7.329080 -22.682899 3.509020 9.287670 -10.745200 2.000000 -2.000000 0.000000 -78.012802 2.125990 -164.673004 61.719299 -0.279625 0.120450 0.047800 0.021964 -125.515999 -2.000000 2.000000 0.000000 -102.281998 168.602005 -0.762064 -30.937799 0.332114 0.070290 -0.087599 -0.087973 -99.392601 -39.617290 -0.072175 -3.387465 54.862278 1.138415 3.874406 14.733213 -22.934065 4.931748 -14.368032 13.826087 -4.649925 26.488564 -1.924538 -2.403285 -12.141463 8.209774 2.800212 
